<svg width="26" height="26" viewBox="0 0 26 26" fill="none" xmlns="http://www.w3.org/2000/svg">
<g id="Icon">
<path id="Shape" fill-rule="evenodd" clip-rule="evenodd" d="M9.75 15.2027H24.9167C25.5667 15.2027 26 15.6346 26 16.2824V24.9203C26 25.5681 25.5667 26 24.9167 26H1.08333C0.433333 26 0 25.5681 0 24.9203V16.2824C0 15.6346 0.433333 15.2027 1.08333 15.2027H7.58333V8.40037C6.93333 8.07645 6.5 7.32064 6.5 6.56483C6.5 5.37712 7.475 4.40536 8.66667 4.40536C9.85833 4.40536 10.8333 5.37712 10.8333 6.56483C10.8333 7.32064 10.4 8.07645 9.75 8.40037V15.2027ZM2.16667 23.8405H23.8333V17.3621H2.16667V23.8405Z" fill="black"/>
<path id="Shape_2" fill-rule="evenodd" clip-rule="evenodd" d="M22.75 20.6013C22.75 21.789 21.775 22.7608 20.5833 22.7608C19.3916 22.7608 18.4166 21.789 18.4166 20.6013C18.4166 19.4136 19.3916 18.4419 20.5833 18.4419C21.775 18.4419 22.75 19.4136 22.75 20.6013ZM21.6666 20.6013C21.6666 19.9535 21.2333 19.5216 20.5833 19.5216C19.9333 19.5216 19.5 19.9535 19.5 20.6013C19.5 21.2492 19.9333 21.6811 20.5833 21.6811C21.2333 21.6811 21.6666 21.2492 21.6666 20.6013Z" fill="black"/>
<rect id="Rectangle" x="3.25" y="18.4419" width="14.0833" height="1.07973" fill="black"/>
<rect id="Rectangle_2" x="3.25" y="21.6811" width="14.0833" height="1.07973" fill="black"/>
<path id="Path" d="M5.09167 10.1279C5.09167 10.1279 5.74167 10.6678 6.06667 10.2359C6.39167 9.80402 5.95833 9.26415 5.95833 9.26415C4.98333 8.72428 4.33333 7.75253 4.33333 6.56482C4.33333 5.37712 4.98333 4.40536 5.95833 3.86549C5.95833 3.86549 6.5 3.4336 6.175 3.00171C5.85 2.56981 5.09167 3.00171 5.09167 3.00171C4.00833 3.75752 3.25 5.0532 3.25 6.56482C3.25 8.07645 4.00833 9.37212 5.09167 10.1279Z" fill="black"/>
<path id="Path_2" d="M11.375 3.86548C12.35 4.40535 13 5.37711 13 6.56481C13 7.75252 12.35 8.72428 11.375 9.26414C11.375 9.26414 10.8333 9.80401 11.1583 10.1279C11.4833 10.4518 12.1333 10.02 12.1333 10.02C13.325 9.37212 14.0833 8.07644 14.0833 6.56481C14.0833 5.05319 13.325 3.75751 12.2416 3.0017C12.2416 3.0017 11.5916 2.46183 11.2666 2.89373C10.9416 3.32562 11.375 3.86548 11.375 3.86548Z" fill="black"/>
<path id="Path_3" d="M3.46667 12.8273C3.9 12.3954 3.35833 11.9635 3.35833 11.9635C1.95 10.5598 1.08333 8.61632 1.08333 6.56483C1.08333 4.51334 1.95 2.56982 3.35833 1.16617C3.35833 1.16617 4.00833 0.734277 3.575 0.194412C3.14167 -0.345454 2.49167 0.410358 2.49167 0.410358C0.975 2.02996 0 4.18942 0 6.56483C0 8.94024 0.975 11.0997 2.49167 12.7193C2.49167 12.7193 3.14167 13.2592 3.46667 12.8273Z" fill="black"/>
<path id="Path_4" d="M13.9751 1.16618C15.3834 2.56983 16.2501 4.40538 16.2501 6.56484C16.2501 8.7243 15.3834 10.5598 13.9751 11.9635C13.9751 11.9635 13.4334 12.5034 13.7584 12.8273C14.0834 13.1512 14.7334 12.7193 14.7334 12.7193C16.3584 11.0997 17.3334 8.94025 17.3334 6.56484C17.3334 4.18943 16.3584 2.02997 14.8417 0.410369C14.8417 0.410369 14.1917 -0.23747 13.8667 0.194423C13.5417 0.626315 13.9751 1.16618 13.9751 1.16618Z" fill="black"/>
</g>
</svg>
